{"title":"Mooring (2012) DVDRip","uid":8150642,"size":1572798464,"categoryP":"video","categoryS":"movies","magnet":"?xt=urn:btih:1806a890e614c68f291fe61581671627ebdc7842&amp;dn=Mooring+%282012%29+DVDRip&amp;tr=udp%3A%2F%2Ftracker.openbittorrent.com%3A80&amp;tr=udp%3A%2F%2Fopen.demonii.com%3A1337&amp;tr=udp%3A%2F%2Ftracker.coppersurfer.tk%3A6969&amp;tr=udp%3A%2F%2Fexodus.desync.com%3A6969","seeders":1,"leechers":0,"uploader":"yfjfrj","files":-1,"time":1361027401,"description":"Plot: Every 40 seconds a person goes missing. In northern Idaho, a group of teenage girls attended a summer camp. They were told it would be a summer of change. It was.\n\n\nMediaInfo 0.7.61:\nGeneral\nComplete name                            : D:The.Mooring.2012.L1.DVDRip.avi\nFormat                                   : AVI\nFormat/Info                              : Audio Video Interleave\nFile size                                : 1.46 GiB\nDuration                                 : 1h 29mn\nOverall bit rate                         : 2 332 Kbps\nDirector                                 : GOLIAF &amp; KOLOBOK\nWriting application                      : VirtualDubMod 1.5.10.2 (build 2540/release)\nWriting library                          : VirtualDubMod build 2540/release\n\nVideo\nID                                       : 0\nFormat                                   : MPEG-4 Visual\nFormat profile                           : Advanced Simple@L5\nFormat settings, BVOP                    : 2\nFormat settings, QPel                    : No\nFormat settings, GMC                     : No warppoints\nFormat settings, Matrix                  : Default (H.263)\nCodec ID                                 : XVID\nCodec ID/Hint                            : XviD\nDuration                                 : 1h 29mn\nBit rate                                 : 1 679 Kbps\nWidth                                    : 720 pixels\nHeight                                   : 400 pixels\nDisplay aspect ratio                     : 16:9\nFrame rate                               : 23.976 fps\nColor space                              : YUV\nChroma subsampling                       : 4:2:0\nBit depth                                : 8 bits\nScan type                                : Progressive\nCompression mode                         : Lossy\nBits/(Pixel*Frame)                       : 0.243\nStream size                              : 1.05 GiB (72%)\nWriting library                          : XviD 1.2.1 (UTC 2008-12-04)\n\nAudio #1\nID                                       : 1\nFormat                                   : MPEG Audio\nFormat version                           : Version 1\nFormat profile                           : Layer 3\nMode                                     : Joint stereo\nCodec ID                                 : 55\nCodec ID/Hint                            : MP3\nDuration                                 : 1h 29mn\nBit rate mode                            : Constant\nBit rate                                 : 192 Kbps\nChannel(s)                               : 2 channels\nSampling rate                            : 48.0 KHz\nCompression mode                         : Lossy\nStream size                              : 123 MiB (8%)\nAlignment                                : Aligned on interleaves\nInterleave, duration                     : 42 ms (1.00 video frame)\nInterleave, preload duration             : 504 ms\n\nAudio #2\nID                                       : 2\nFormat                                   : AC-3\nFormat/Info                              : Audio Coding 3\nMode extension                           : CM (complete main)\nFormat settings, Endianness              : Big\nCodec ID                                 : 2000\nDuration                                 : 1h 29mn\nBit rate mode                            : Constant\nBit rate                                 : 448 Kbps\nChannel(s)                               : 6 channels\nChannel positions                        : Front: L C R, Side: L R, LFE\nSampling rate                            : 48.0 KHz\nBit depth                                : 16 bits\nCompression mode                         : Lossy\nStream size                              : 288 MiB (19%)\nAlignment                                : Split accross interleaves\nInterleave, duration                     : 42 ms (1.00 video frame)\nInterleave, preload duration             : 500 ms","torrent":{"xt":"urn:btih:1806a890e614c68f291fe61581671627ebdc7842","amp;dn":"Mooring+%282012%29+DVDRip","amp;tr":["udp%3A%2F%2Ftracker.openbittorrent.com%3A80","udp%3A%2F%2Fopen.demonii.com%3A1337","udp%3A%2F%2Ftracker.coppersurfer.tk%3A6969","udp%3A%2F%2Fexodus.desync.com%3A6969"],"infoHash":"1806a890e614c68f291fe61581671627ebdc7842","infoHashBuffer":{"type":"Buffer","data":[24,6,168,144,230,20,198,143,41,31,230,21,129,103,22,39,235,220,120,66]},"announce":[],"urlList":[]}}